<?xml version="1.0" encoding="UTF-8"?>
<svg version="1.1" xmlns="http://www.w3.org/2000/svg" width="200" height="197">
<path d="M0 0 C66 0 132 0 200 0 C200 65.01 200 130.02 200 197 C134 197 68 197 0 197 C0 131.99 0 66.98 0 0 Z " fill="#FAFAF9" transform="translate(0,0)"/>
<path d="M0 0 C1.9375 0.3125 1.9375 0.3125 4 1 C4.495 2.485 4.495 2.485 5 4 C7.64 3.67 10.28 3.34 13 3 C13 3.66 13 4.32 13 5 C12.34 5 11.68 5 11 5 C11.495 5.61875 11.99 6.2375 12.5 6.875 C14 9 14 9 14 11 C11.525 10.505 11.525 10.505 9 10 C9.495 12.97 9.495 12.97 10 16 C9.01 16.33 8.02 16.66 7 17 C6.34 15.02 5.68 13.04 5 11 C3.05925139 11.27617533 3.05925139 11.27617533 1 12 C0.34 12.99 -0.32 13.98 -1 15 C-0.34 15 0.32 15 1 15 C0.7834375 15.92296875 0.566875 16.8459375 0.34375 17.796875 C-2.09360095 28.94236099 -2.31472673 39.62321148 -2 51 C-1.01 51.33 -0.02 51.66 1 52 C0.505 50.1746875 0.505 50.1746875 0 48.3125 C-2.28337792 37.83195962 -1.07888221 28.17130729 2 18 C3.27310312 18.93441535 4.543388 19.87267111 5.8125 20.8125 C6.52019531 21.33457031 7.22789063 21.85664062 7.95703125 22.39453125 C9.79961207 23.84252498 11.46364869 25.23101505 13 27 C13 27.66 13 28.32 13 29 C10.69 29 8.38 29 6 29 C6 36.92 6 44.84 6 53 C7.65 53.33 9.3 53.66 11 54 C11 54.33 11 54.66 11 55 C5.06 55.495 5.06 55.495 -1 56 C0.48113281 56.18175781 0.48113281 56.18175781 1.9921875 56.3671875 C3.27351563 56.53476563 4.55484375 56.70234375 5.875 56.875 C7.78925781 57.11863281 7.78925781 57.11863281 9.7421875 57.3671875 C13 58 13 58 15 60 C8.565 60.495 8.565 60.495 2 61 C4.97 61.66 7.94 62.32 11 63 C11 63.33 11 63.66 11 64 C1.1 64.495 1.1 64.495 -9 65 C-9 65.33 -9 65.66 -9 66 C-16.92 66.33 -24.84 66.66 -33 67 C-32 65 -32 65 -29.71484375 64.1484375 C-28.79832031 63.89320312 -27.88179687 63.63796875 -26.9375 63.375 C-25.55884766 62.98441406 -25.55884766 62.98441406 -24.15234375 62.5859375 C-23.44207031 62.39257812 -22.73179688 62.19921875 -22 62 C-22.64549805 62.01571045 -23.29099609 62.0314209 -23.95605469 62.04760742 C-26.88728029 62.11005802 -29.81836579 62.1490223 -32.75 62.1875 C-33.76578125 62.21263672 -34.7815625 62.23777344 -35.828125 62.26367188 C-36.8078125 62.27333984 -37.7875 62.28300781 -38.796875 62.29296875 C-39.69760742 62.3086792 -40.59833984 62.32438965 -41.52636719 62.34057617 C-44.45308763 61.93761772 -45.81341349 60.9344597 -48 59 C-44.99221479 57.99740493 -42.46179353 57.69685358 -39.3125 57.4375 C-38.31863281 57.35371094 -37.32476562 57.26992187 -36.30078125 57.18359375 C-35.54152344 57.12300781 -34.78226563 57.06242187 -34 57 C-36.31 56.67 -38.62 56.34 -41 56 C-40.67 55.34 -40.34 54.68 -40 54 C-36.535 53.505 -36.535 53.505 -33 53 C-33 45.08 -33 37.16 -33 29 C-35.31 29 -37.62 29 -40 29 C-40 28.34 -40 27.68 -40 27 C-38.03125 25.2734375 -38.03125 25.2734375 -35.5 23.375 C-34.6646875 22.74335937 -33.829375 22.11171875 -32.96875 21.4609375 C-32.3190625 20.97882813 -31.669375 20.49671875 -31 20 C-26.19618562 24.33416773 -24.64197904 30.70860538 -24 37 C-23.80406476 41.787635 -23.79434011 46.32806794 -25 51 C-24.01 51 -23.02 51 -22 51 C-22.29586951 40.30431714 -22.88199951 29.17700073 -29 20 C-29 18.68 -29 17.36 -29 16 C-30.32 15.34 -31.64 14.68 -33 14 C-33.99 16.31 -34.98 18.62 -36 21 C-36.66 20.67 -37.32 20.34 -38 20 C-37.67 17.69 -37.34 15.38 -37 13 C-38.65 13.33 -40.3 13.66 -42 14 C-41.835 13.4225 -41.67 12.845 -41.5 12.25 C-40.85537969 9.73335631 -40.85537969 9.73335631 -41 6 C-39.329375 6.061875 -39.329375 6.061875 -37.625 6.125 C-33.95633975 6.41121859 -33.95633975 6.41121859 -32 4 C-31.01 4 -30.02 4 -29 4 C-29 4.99 -29 5.98 -29 7 C-26.525 7.495 -26.525 7.495 -24 8 C-24 8.66 -24 9.32 -24 10 C-25.65 10 -27.3 10 -29 10 C-29 10.66 -29 11.32 -29 12 C-27.30934511 12.95835414 -27.30934511 12.95835414 -25 13 C-22.87782068 11.41429339 -21.1166444 9.90709742 -19.25 8.0625 C-18.74339844 7.58103516 -18.23679687 7.09957031 -17.71484375 6.60351562 C-16.46587496 5.41346046 -15.2314897 4.20813387 -14 3 C-11.00779732 4.36370299 -8.70973471 5.94908083 -6.25 8.125 C-5.32960938 8.93324219 -5.32960938 8.93324219 -4.390625 9.7578125 C-3.70226562 10.37269531 -3.70226562 10.37269531 -3 11 C-2.34 10.01 -1.68 9.02 -1 8 C-1.99 7.34 -2.98 6.68 -4 6 C-4 5.34 -4 4.68 -4 4 C-2.35 4 -0.7 4 1 4 C0.505 2.02 0.505 2.02 0 0 Z " fill="#4C8B05" transform="translate(116,50)"/>
<path d="M0 0 C2.475 0.495 2.475 0.495 5 1 C5.66 1.99 6.32 2.98 7 4 C6.01 4.495 6.01 4.495 5 5 C4.67 68.36 4.34 131.72 4 197 C2.68 197 1.36 197 0 197 C0 131.99 0 66.98 0 0 Z " fill="#D3D4D5" transform="translate(0,0)"/>
<path d="M0 0 C63.36 0 126.72 0 192 0 C192 0.99 192 1.98 192 3 C167.26162004 3.02333177 142.52324172 3.04098055 117.78485298 3.05181217 C106.29911049 3.05697454 94.81337483 3.06401611 83.32763672 3.07543945 C73.31990393 3.0853881 63.31217607 3.09185386 53.30443847 3.09408849 C48.00251458 3.09539529 42.70060483 3.09847921 37.39868546 3.10573006 C32.41328155 3.11249311 27.42789768 3.11461637 22.44248962 3.11310768 C20.60823839 3.11338388 18.77398651 3.11538732 16.93973923 3.11920547 C14.44434908 3.12414716 11.94903555 3.1229965 9.4536438 3.12025452 C8.35346206 3.12462378 8.35346206 3.12462378 7.23105443 3.12908131 C2.22824242 3.11412121 2.22824242 3.11412121 0 2 C0 1.34 0 0.68 0 0 Z " fill="#DCDCDC" transform="translate(8,0)"/>
<path d="M0 0 C0.7805072 0.02009628 1.5610144 0.04019257 2.36517334 0.06089783 C3.61382172 0.10145042 3.61382172 0.10145042 4.88769531 0.14282227 C6.17767426 0.17823875 6.17767426 0.17823875 7.49371338 0.21437073 C10.23459186 0.29081062 12.9751737 0.3749194 15.71582031 0.45922852 C17.57648299 0.51246891 19.43716004 0.56520917 21.29785156 0.61743164 C25.85402822 0.7463991 30.40995399 0.88224386 34.96582031 1.02172852 C32.98582031 2.01172852 32.98582031 2.01172852 30.96582031 3.02172852 C32.44695312 3.20348633 32.44695312 3.20348633 33.95800781 3.38891602 C35.88 3.6402832 35.88 3.6402832 37.84082031 3.89672852 C39.75507812 4.14036133 39.75507812 4.14036133 41.70800781 4.38891602 C44.96582031 5.02172852 44.96582031 5.02172852 46.96582031 7.02172852 C40.53082031 7.51672852 40.53082031 7.51672852 33.96582031 8.02172852 C38.42082031 9.01172852 38.42082031 9.01172852 42.96582031 10.02172852 C42.96582031 10.35172852 42.96582031 10.68172852 42.96582031 11.02172852 C33.06582031 11.51672852 33.06582031 11.51672852 22.96582031 12.02172852 C22.96582031 12.35172852 22.96582031 12.68172852 22.96582031 13.02172852 C15.04582031 13.35172852 7.12582031 13.68172852 -1.03417969 14.02172852 C-0.03417969 12.02172852 -0.03417969 12.02172852 2.25097656 11.17016602 C3.1675 10.91493164 4.08402344 10.65969727 5.02832031 10.39672852 C5.94742188 10.13633789 6.86652344 9.87594727 7.81347656 9.60766602 C8.52375 9.41430664 9.23402344 9.22094727 9.96582031 9.02172852 C9.32032227 9.03743896 8.67482422 9.05314941 8.00976562 9.06933594 C5.07854002 9.13178654 2.14745452 9.17075082 -0.78417969 9.20922852 C-1.79996094 9.23436523 -2.81574219 9.25950195 -3.86230469 9.28540039 C-4.84199219 9.29506836 -5.82167969 9.30473633 -6.83105469 9.31469727 C-8.18215332 9.33826294 -8.18215332 9.33826294 -9.56054688 9.36230469 C-12.48726731 8.95934624 -13.84759318 7.95618821 -16.03417969 6.02172852 C-13.02639448 5.01913345 -10.49597322 4.7185821 -7.34667969 4.45922852 C-6.3528125 4.37543945 -5.35894531 4.29165039 -4.33496094 4.20532227 C-3.57570313 4.14473633 -2.81644531 4.08415039 -2.03417969 4.02172852 C-4.34417969 3.69172852 -6.65417969 3.36172852 -9.03417969 3.02172852 C-8.03417969 1.02172852 -8.03417969 1.02172852 -6.22381592 0.39808655 C-4.07588517 0.02889692 -2.17546179 -0.06356869 0 0 Z " fill="#66C2EE" transform="translate(84.0341796875,102.978271484375)"/>
<path d="M0 0 C4.80381438 4.33416773 6.35802096 10.70860538 7 17 C7.19593524 21.787635 7.20565989 26.32806794 6 31 C6.99 31.33 7.98 31.66 9 32 C3.555 32.495 3.555 32.495 -2 33 C-2 25.08 -2 17.16 -2 9 C-4.31 9 -6.62 9 -9 9 C-9 8.34 -9 7.68 -9 7 C-7.03125 5.2734375 -7.03125 5.2734375 -4.5 3.375 C-3.6646875 2.74335937 -2.829375 2.11171875 -1.96875 1.4609375 C-1.3190625 0.97882813 -0.669375 0.49671875 0 0 Z " fill="#90BC16" transform="translate(85,70)"/>
<path d="M0 0 C1.27310312 0.93441535 2.543388 1.87267111 3.8125 2.8125 C4.52019531 3.33457031 5.22789063 3.85664062 5.95703125 4.39453125 C7.79961207 5.84252498 9.46364869 7.23101505 11 9 C11 9.66 11 10.32 11 11 C8.69 11 6.38 11 4 11 C4 18.92 4 26.84 4 35 C2.35 34.67 0.7 34.34 -1 34 C-4.19445342 22.22045301 -3.52315129 11.63898192 0 0 Z " fill="#8CB90B" transform="translate(118,68)"/>
<path d="M0 0 C1.65 0 3.3 0 5 0 C5 0.66 5 1.32 5 2 C68.36 2.33 131.72 2.66 197 3 C197 3.33 197 3.66 197 4 C171.90501707 4.04668572 146.81004063 4.08197201 121.71502304 4.10362434 C110.06341858 4.11394435 98.41184107 4.12801852 86.76025391 4.15087891 C76.60674053 4.17079061 66.45324668 4.18371116 56.29971433 4.18817699 C50.92169609 4.19078813 45.5437337 4.1969405 40.16573334 4.21146011 C35.10643781 4.22500895 30.04722127 4.22922811 24.98790932 4.22621536 C23.12869399 4.22676674 21.26947608 4.2307602 19.41027641 4.23841095 C16.87610128 4.24832998 14.34222621 4.24598004 11.80804443 4.24050903 C10.69909195 4.24924756 10.69909195 4.24924756 9.56773639 4.25816262 C5.88204225 4.23658734 3.13152694 4.03998682 0 2 C0 1.34 0 0.68 0 0 Z " fill="#EBEBEB" transform="translate(3,0)"/>
<path d="M0 0 C1.32 0.66 2.64 1.32 4 2 C3.43539062 2.07089844 2.87078125 2.14179687 2.2890625 2.21484375 C-0.85361911 3.29279427 -2.36769754 5.15043265 -4.625 7.5625 C-6.04700295 9.07662607 -7.49825153 10.56493148 -9 12 C-9.66 12 -10.32 12 -11 12 C-11 12.99 -11 13.98 -11 15 C-11.66 15 -12.32 15 -13 15 C-13.33 15.99 -13.66 16.98 -14 18 C-14.0825 17.21625 -14.165 16.4325 -14.25 15.625 C-14.72806339 12.85250896 -14.72806339 12.85250896 -17.0625 11.6875 C-17.701875 11.460625 -18.34125 11.23375 -19 11 C-19.99 13.31 -20.98 15.62 -22 18 C-22.66 17.67 -23.32 17.34 -24 17 C-23.67 14.69 -23.34 12.38 -23 10 C-24.65 10.33 -26.3 10.66 -28 11 C-27.835 10.4225 -27.67 9.845 -27.5 9.25 C-26.85537969 6.73335631 -26.85537969 6.73335631 -27 3 C-25.329375 3.061875 -25.329375 3.061875 -23.625 3.125 C-19.95633975 3.41121859 -19.95633975 3.41121859 -18 1 C-17.01 1 -16.02 1 -15 1 C-15 1.99 -15 2.98 -15 4 C-13.35 4.33 -11.7 4.66 -10 5 C-10 5.66 -10 6.32 -10 7 C-11.65 7 -13.3 7 -15 7 C-15 7.66 -15 8.32 -15 9 C-13.30934511 9.95835414 -13.30934511 9.95835414 -11 10 C-8.87782068 8.41429339 -7.1166444 6.90709742 -5.25 5.0625 C-4.74339844 4.58103516 -4.23679687 4.09957031 -3.71484375 3.60351562 C-2.46587496 2.41346046 -1.2314897 1.20813387 0 0 Z " fill="#5E961D" transform="translate(102,53)"/>
<path d="M0 0 C6.93 0 13.86 0 21 0 C20.67 2.97 20.34 5.94 20 9 C19.01 9 18.02 9 17 9 C16.67 8.34 16.34 7.68 16 7 C15.01 7.66 14.02 8.32 13 9 C10.1171875 9.23046875 10.1171875 9.23046875 6.875 9.1875 C5.79992187 9.18105469 4.72484375 9.17460937 3.6171875 9.16796875 C1 9 1 9 0 8 C0 5.36 0 2.72 0 0 Z " fill="#C7DAB2" transform="translate(113,124)"/>
<path d="M0 0 C9.24 0 18.48 0 28 0 C28 0.66 28 1.32 28 2 C27.01 2.33 26.02 2.66 25 3 C25.33 3.66 25.66 4.32 26 5 C24.35 5 22.7 5 21 5 C21 5.66 21 6.32 21 7 C21.66 7.33 22.32 7.66 23 8 C15.08 8.33 7.16 8.66 -1 9 C0 7 0 7 2.94140625 5.9296875 C6.29427083 4.953125 9.64713542 3.9765625 13 3 C6.07 2.505 6.07 2.505 -1 2 C-0.67 1.34 -0.34 0.68 0 0 Z " fill="#2893D9" transform="translate(84,108)"/>
<path d="M0 0 C1.9375 0.3125 1.9375 0.3125 4 1 C4.33 1.99 4.66 2.98 5 4 C7.64 3.67 10.28 3.34 13 3 C13 3.66 13 4.32 13 5 C12.34 5 11.68 5 11 5 C11.495 5.61875 11.99 6.2375 12.5 6.875 C14 9 14 9 14 11 C11.525 10.505 11.525 10.505 9 10 C9.33 11.98 9.66 13.96 10 16 C9.01 16.33 8.02 16.66 7 17 C6.34 15.02 5.68 13.04 5 11 C1.73045798 11.56371414 0.17424117 12.49962266 -2 15 C-2.99 14.34 -3.98 13.68 -5 13 C-3.93453047 10.86906094 -2.70840281 9.63412443 -1 8 C-1.99 7.34 -2.98 6.68 -4 6 C-4 5.34 -4 4.68 -4 4 C-2.35 4 -0.7 4 1 4 C0.67 2.68 0.34 1.36 0 0 Z " fill="#569113" transform="translate(116,50)"/>
<path d="M0 0 C1.77074917 -0.02705729 3.54161711 -0.04642195 5.3125 -0.0625 C6.29863281 -0.07410156 7.28476563 -0.08570312 8.30078125 -0.09765625 C11 0 11 0 14 1 C14 3.97 14 6.94 14 10 C9.33333333 10 4.66666667 10 0 10 C0 6.7 0 3.4 0 0 Z " fill="#BFD5A7" transform="translate(59,123)"/>
<path d="M0 0 C4.29 0 8.58 0 13 0 C12.67 1.65 12.34 3.3 12 5 C12.66 6.32 13.32 7.64 14 9 C9.38 9 4.76 9 0 9 C0 6.03 0 3.06 0 0 Z " fill="#BFD5A7" transform="translate(166,124)"/>
<path d="M0 0 C3.96388638 -0.07622858 7.1273408 0.0318352 11 1 C11 3.97 11 6.94 11 10 C9.68 9.67 8.36 9.34 7 9 C6.01 9.33 5.02 9.66 4 10 C3.67 9.34 3.34 8.68 3 8 C2.01 8.33 1.02 8.66 0 9 C0 6.03 0 3.06 0 0 Z " fill="#6FA136" transform="translate(33,123)"/>
<path d="M0 0 C0.7805072 0.02009628 1.5610144 0.04019257 2.36517334 0.06089783 C3.61382172 0.10145042 3.61382172 0.10145042 4.88769531 0.14282227 C6.17767426 0.17823875 6.17767426 0.17823875 7.49371338 0.21437073 C10.23459186 0.29081062 12.9751737 0.3749194 15.71582031 0.45922852 C17.57648299 0.51246891 19.43716004 0.56520917 21.29785156 0.61743164 C25.85402822 0.7463991 30.40995399 0.88224386 34.96582031 1.02172852 C31.61707155 4.08165275 29.35085594 4.38876448 24.87207031 4.34985352 C23.67582031 4.34469727 22.47957031 4.33954102 21.24707031 4.33422852 C19.99925781 4.31360352 18.75144531 4.29297852 17.46582031 4.27172852 C15.64050781 4.26399414 15.64050781 4.26399414 13.77832031 4.25610352 C6.13315884 4.19076026 -1.42675389 3.77685158 -9.03417969 3.02172852 C-8.03417969 1.02172852 -8.03417969 1.02172852 -6.22381592 0.39808655 C-4.07588517 0.02889692 -2.17546179 -0.06356869 0 0 Z " fill="#ADCCA7" transform="translate(84.0341796875,102.978271484375)"/>
<path d="M0 0 C1.19044922 0.00451172 2.38089844 0.00902344 3.60742188 0.01367188 C6.50916936 0.02532548 9.41080626 0.04168441 12.3125 0.0625 C12.3125 0.3925 12.3125 0.7225 12.3125 1.0625 C4.3925 1.3925 -3.5275 1.7225 -11.6875 2.0625 C-7.3975 2.3925 -3.1075 2.7225 1.3125 3.0625 C1.3125 3.3925 1.3125 3.7225 1.3125 4.0625 C-2.76965031 4.31752274 -6.85295691 4.53702986 -10.9375 4.75 C-12.09636719 4.82283203 -13.25523438 4.89566406 -14.44921875 4.97070312 C-16.12177734 5.05288086 -16.12177734 5.05288086 -17.828125 5.13671875 C-18.85454102 5.19432373 -19.88095703 5.25192871 -20.93847656 5.3112793 C-24.09814686 5.02533755 -25.37862862 4.17574525 -27.6875 2.0625 C-18.98387056 -0.83870981 -9.06199068 -0.06614592 0 0 Z " fill="#6FADDE" transform="translate(95.6875,106.9375)"/>
<path d="M0 0 C0.66 0.33 1.32 0.66 2 1 C1.7834375 2.07314453 1.7834375 2.07314453 1.5625 3.16796875 C-0.43782168 13.90580667 -0.46504215 24.19531413 1 35 C-0.32 34.67 -1.64 34.34 -3 34 C-3.32071279 22.1930182 -3.18816872 11.46222562 0 0 Z " fill="#DCE8C5" transform="translate(116,67)"/>
<path d="M0 0 C2.05078125 0.03255208 4.1015625 0.06510417 6.15234375 0.09765625 C6.15234375 3.06765625 6.15234375 6.03765625 6.15234375 9.09765625 C3.18234375 9.09765625 0.21234375 9.09765625 -2.84765625 9.09765625 C-2.9453125 2.9453125 -2.9453125 2.9453125 -2.84765625 1.09765625 C-1.84765625 0.09765625 -1.84765625 0.09765625 0 0 Z " fill="#9ABC73" transform="translate(100.84765625,67.90234375)"/>
<path d="M0 0 C5.75 0.875 5.75 0.875 8 2 C8 2.66 8 3.32 8 4 C3.45104526 5.51631825 -1.58639052 5.5251884 -6.24511719 4.51147461 C-9.25157925 3.95329152 -12.12013768 3.78896077 -15.17578125 3.68359375 C-16.33271484 3.64169922 -17.48964844 3.59980469 -18.68164062 3.55664062 C-19.87982422 3.51732422 -21.07800781 3.47800781 -22.3125 3.4375 C-23.53001953 3.39431641 -24.74753906 3.35113281 -26.00195312 3.30664062 C-29.0011947 3.20078504 -32.00051591 3.09870274 -35 3 C-35 2.67 -35 2.34 -35 2 C-17.675 1.505 -17.675 1.505 0 1 C0 0.67 0 0.34 0 0 Z " fill="#E0ECDF" transform="translate(124,103)"/>
<path d="M0 0 C0.99 0 1.98 0 3 0 C9.09695632 11.35616292 10.29689422 20.3325133 10 33 C9.01 33 8.02 33 7 33 C7.05220703 31.69289063 7.05220703 31.69289063 7.10546875 30.359375 C7.32628172 20.64360434 7.22038666 10.90472728 1 3 C0.67 2.01 0.34 1.02 0 0 Z " fill="#CEDFAA" transform="translate(84,68)"/>
<path d="M0 0 C-4.95 0 -9.9 0 -15 0 C-15 0.66 -15 1.32 -15 2 C-14.34 2.33 -13.68 2.66 -13 3 C-21.91 2.67 -30.82 2.34 -40 2 C-40 1.67 -40 1.34 -40 1 C-35.38 0.67 -30.76 0.34 -26 0 C-26 -0.33 -26 -0.66 -26 -1 C-22.4175621 -1.22624982 -18.83414899 -1.42787181 -15.25 -1.625 C-14.23421875 -1.68945312 -13.2184375 -1.75390625 -12.171875 -1.8203125 C-11.1921875 -1.871875 -10.2125 -1.9234375 -9.203125 -1.9765625 C-7.85202637 -2.05511475 -7.85202637 -2.05511475 -6.47363281 -2.13525391 C-4 -2 -4 -2 0 0 Z " fill="#B6DDF2" transform="translate(131,115)"/>
<path d="M0 0 C0.66 0 1.32 0 2 0 C2 0.66 2 1.32 2 2 C3.32 2.33 4.64 2.66 6 3 C6 3.66 6 4.32 6 5 C7.32 4.67 8.64 4.34 10 4 C10 4.66 10 5.32 10 6 C11.32 5.67 12.64 5.34 14 5 C14 7.31 14 9.62 14 12 C13.01 12.33 12.02 12.66 11 13 C10.34 11.02 9.68 9.04 9 7 C5.73045798 7.56371414 4.17424117 8.49962266 2 11 C1.01 10.34 0.02 9.68 -1 9 C0.06546953 6.86906094 1.29159719 5.63412443 3 4 C2.01 3.34 1.02 2.68 0 2 C0 1.34 0 0.68 0 0 Z " fill="#6C9F31" transform="translate(112,54)"/>
<path d="M0 0 C-0.99 0.33 -1.98 0.66 -3 1 C-2.67 1.33 -2.34 1.66 -2 2 C-1.030625 1.979375 -0.06125 1.95875 0.9375 1.9375 C4 2 4 2 6 4 C-1.92 4.33 -9.84 4.66 -18 5 C-17 3 -17 3 -13.69140625 1.89453125 C-12.31735719 1.52536385 -10.94090476 1.16505597 -9.5625 0.8125 C-8.86833984 0.62236328 -8.17417969 0.43222656 -7.45898438 0.23632812 C-2.25683532 -1.12841766 -2.25683532 -1.12841766 0 0 Z " fill="#469DDA" transform="translate(101,112)"/>
<path d="M0 0 C0.02689216 1.47906892 0.04634621 2.95827483 0.0625 4.4375 C0.07410156 5.26121094 0.08570313 6.08492187 0.09765625 6.93359375 C0 9 0 9 -1 10 C-3.5 10.125 -3.5 10.125 -6 10 C-7 9 -7 9 -7.09765625 7.15234375 C-7.06510417 5.1015625 -7.03255208 3.05078125 -7 1 C-4.50935112 0.31292445 -2.62113708 0 0 0 Z " fill="#84AE53" transform="translate(165,123)"/>
<path d="M0 0 C2.64 0 5.28 0 8 0 C7.67 2.97 7.34 5.94 7 9 C6.01 9 5.02 9 4 9 C3.67 8.34 3.34 7.68 3 7 C2.01 7.495 2.01 7.495 1 8 C0.896875 7.38125 0.79375 6.7625 0.6875 6.125 C0.12474627 3.63473516 0.12474627 3.63473516 -3 2 C-2.01 2 -1.02 2 0 2 C0 1.34 0 0.68 0 0 Z " fill="#D3E2C4" transform="translate(126,124)"/>
<path d="M0 0 C1.98 0 3.96 0 6 0 C6 2.97 6 5.94 6 9 C4.02 9 2.04 9 0 9 C0 6.03 0 3.06 0 0 Z " fill="#78A742" transform="translate(150,124)"/>
<path d="M0 0 C1.98 0 3.96 0 6 0 C6 2.97 6 5.94 6 9 C4.02 9 2.04 9 0 9 C0 6.03 0 3.06 0 0 Z " fill="#689C2C" transform="translate(59,124)"/>
<path d="M0 0 C1.98 0 3.96 0 6 0 C6 0.99 6 1.98 6 3 C5.01 3.33 4.02 3.66 3 4 C3.99 4 4.98 4 6 4 C6 5.65 6 7.3 6 9 C4.02 9 2.04 9 0 9 C0 6.03 0 3.06 0 0 Z " fill="#74A43D" transform="translate(46,124)"/>
<path d="M0 0 C1.98 0 3.96 0 6 0 C6 2.97 6 5.94 6 9 C4.02 9 2.04 9 0 9 C0 6.03 0 3.06 0 0 Z " fill="#73A43B" transform="translate(105,124)"/>
<path d="M0 0 C1.98 0 3.96 0 6 0 C6 0.66 6 1.32 6 2 C5.01 2 4.02 2 3 2 C3 2.66 3 3.32 3 4 C3.99 4 4.98 4 6 4 C6 5.65 6 7.3 6 9 C4.02 9 2.04 9 0 9 C0 6.03 0 3.06 0 0 Z " fill="#76A640" transform="translate(97,124)"/>
<path d="M0 0 C1.77226453 0.28284018 3.542788 0.57660498 5.3125 0.875 C6.29863281 1.03742188 7.28476563 1.19984375 8.30078125 1.3671875 C11 2 11 2 14 4 C3.11 3.67 -7.78 3.34 -19 3 C-19 2.67 -19 2.34 -19 2 C-12.73 2 -6.46 2 0 2 C0 1.34 0 0.68 0 0 Z " fill="#5E971C" transform="translate(113,101)"/>
<path d="M0 0 C1.32 0.66 2.64 1.32 4 2 C3.43539062 2.07089844 2.87078125 2.14179687 2.2890625 2.21484375 C-0.85361911 3.29279427 -2.36769754 5.15043265 -4.625 7.5625 C-6.04700295 9.07662607 -7.49825153 10.56493148 -9 12 C-9.66 12 -10.32 12 -11 12 C-11 12.99 -11 13.98 -11 15 C-11.66 14.67 -12.32 14.34 -13 14 C-10.81781061 9.91836336 -8.29492732 7.21766403 -4.8125 4.1875 C-3.91144531 3.39730469 -3.01039062 2.60710938 -2.08203125 1.79296875 C-1.39496094 1.20128906 -0.70789063 0.60960937 0 0 Z M-15 14 C-14.01 14.495 -14.01 14.495 -13 15 C-13.33 15.99 -13.66 16.98 -14 18 C-14.33 16.68 -14.66 15.36 -15 14 Z " fill="#6DA032" transform="translate(102,53)"/>
<path d="M0 0 C6.15234375 0.5859375 6.15234375 0.5859375 8 1 C8.33 1.66 8.66 2.32 9 3 C5.04 3 1.08 3 -3 3 C-3 3.66 -3 4.32 -3 5 C-8.94 4.01 -8.94 4.01 -15 3 C-15 2.67 -15 2.34 -15 2 C-10.05 1.67 -5.1 1.34 0 1 C0 0.67 0 0.34 0 0 Z " fill="#D7EFF9" transform="translate(129,108)"/>
<path d="M0 0 C-0.33 2.97 -0.66 5.94 -1 9 C-2.65 9 -4.3 9 -6 9 C-6 6.36 -6 3.72 -6 1 C-3 0 -3 0 0 0 Z " fill="#7DAA4A" transform="translate(31,123)"/>
<path d="M0 0 C0.66 0 1.32 0 2 0 C2 1.98 2 3.96 2 6 C2.66 6 3.32 6 4 6 C4 4.02 4 2.04 4 0 C4.66 0 5.32 0 6 0 C6 2.97 6 5.94 6 9 C4.02 9 2.04 9 0 9 C0 6.03 0 3.06 0 0 Z " fill="#6A9E2F" transform="translate(76,124)"/>
<path d="M0 0 C2.60557491 0.28184585 5.20900398 0.57502711 7.8125 0.875 C8.55048828 0.95363281 9.28847656 1.03226562 10.04882812 1.11328125 C13.71506181 1.54460286 15.87951745 1.9196783 19 4 C11.74 4 4.48 4 -3 4 C-1.68 3.34 -0.36 2.68 1 2 C0.67 1.34 0.34 0.68 0 0 Z " fill="#48B3E9" transform="translate(108,110)"/>
<path d="M0 0 C1.65 0 3.3 0 5 0 C4.79375 0.7425 4.5875 1.485 4.375 2.25 C3.95591249 5.32330841 4.38050989 6.42786866 6 9 C4.33388095 9.042721 2.66617115 9.04063832 1 9 C0 8 0 8 -0.09765625 6.15234375 C-0.06510417 4.1015625 -0.03255208 2.05078125 0 0 Z " fill="#93B969" transform="translate(174,124)"/>
<path d="M0 0 C2.31 0 4.62 0 7 0 C6.01 0.495 6.01 0.495 5 1 C5.33 3.97 5.66 6.94 6 10 C5.34 10 4.68 10 4 10 C3.67 9.34 3.34 8.68 3 8 C2.01 8.33 1.02 8.66 0 9 C0 6.03 0 3.06 0 0 Z " fill="#96BA6C" transform="translate(33,123)"/>
<path d="M0 0 C2 2 2 2 2.1953125 5.4765625 C2.18201493 6.85950968 2.15816232 8.24238654 2.125 9.625 C2.11597656 10.33140625 2.10695313 11.0378125 2.09765625 11.765625 C2.07407603 13.51056098 2.03820461 15.25532295 2 17 C1.01 17 0.02 17 -1 17 C-0.67 11.39 -0.34 5.78 0 0 Z " fill="#F0F4E8" transform="translate(92,84)"/>
<path d="M0 0 C1.65 0.99 3.3 1.98 5 3 C4.67 3.66 4.34 4.32 4 5 C3.01 5 2.02 5 1 5 C0.87625 5.639375 0.7525 6.27875 0.625 6.9375 C0.41875 7.618125 0.2125 8.29875 0 9 C-0.99 9.495 -0.99 9.495 -2 10 C-2.66 9.34 -3.32 8.68 -4 8 C-2.68 5.36 -1.36 2.72 0 0 Z " fill="#E8EFDB" transform="translate(83,63)"/>
<path d="M0 0 C0.66 0 1.32 0 2 0 C2 0.99 2 1.98 2 3 C2.66 3 3.32 3 4 3 C4 2.01 4 1.02 4 0 C4.66 0 5.32 0 6 0 C6 2.64 6 5.28 6 8 C5.34 8 4.68 8 4 8 C4 7.01 4 6.02 4 5 C3.34 5 2.68 5 2 5 C2 5.99 2 6.98 2 8 C1.34 8 0.68 8 0 8 C0 5.36 0 2.72 0 0 Z " fill="#609720" transform="translate(142,124)"/>
<path d="M0 0 C1.65 0 3.3 0 5 0 C5.33 2.64 5.66 5.28 6 8 C4.02 8 2.04 8 0 8 C0 7.34 0 6.68 0 6 C0.99 6 1.98 6 3 6 C2.01 5.34 1.02 4.68 0 4 C0 2.68 0 1.36 0 0 Z " fill="#649A26" transform="translate(121,124)"/>
<path d="M0 0 C0.66 0 1.32 0 2 0 C2 0.66 2 1.32 2 2 C2.66 2 3.32 2 4 2 C4.33 1.34 4.66 0.68 5 0 C5 2.64 5 5.28 5 8 C3.35 8 1.7 8 0 8 C0 5.36 0 2.72 0 0 Z " fill="#649A27" transform="translate(84,124)"/>
<path d="M0 0 C1.65 0 3.3 0 5 0 C4.814375 0.763125 4.62875 1.52625 4.4375 2.3125 C3.77180827 5.08967375 3.77180827 5.08967375 5 8 C3.35 8 1.7 8 0 8 C0 5.36 0 2.72 0 0 Z " fill="#70A237" transform="translate(113,124)"/>
<path d="M0 0 C1.65 0 3.3 0 5 0 C5 2.64 5 5.28 5 8 C3.35 8 1.7 8 0 8 C0 5.33333333 0 2.66666667 0 0 Z " fill="#629923" transform="translate(167,124)"/>
<path d="M0 0 C1.65 0 3.3 0 5 0 C5 2.64 5 5.28 5 8 C4.34 8 3.68 8 3 8 C3 7.01 3 6.02 3 5 C2.34 5 1.68 5 1 5 C0.67 5.99 0.34 6.98 0 8 C0 5.36 0 2.72 0 0 Z " fill="#5C951B" transform="translate(68,124)"/>
<path d="M0 0 C3.3 0 6.6 0 10 0 C9.01 0.495 9.01 0.495 8 1 C8.061875 2.423125 8.061875 2.423125 8.125 3.875 C8 7 8 7 6 9 C6 7.68 6 6.36 6 5 C5.01 5 4.02 5 3 5 C3 4.34 3 3.68 3 3 C3.99 3 4.98 3 6 3 C6 2.34 6 1.68 6 1 C4.02 1 2.04 1 0 1 C0 0.67 0 0.34 0 0 Z " fill="#D3E1C2" transform="translate(97,123)"/>
<path d="M0 0 C0.66 0 1.32 0 2 0 C2 2.64 2 5.28 2 8 C2.66 8.33 3.32 8.66 4 9 C2.35 8.67 0.7 8.34 -1 8 C-0.67 5.36 -0.34 2.72 0 0 Z " fill="#DFE8D3" transform="translate(31,124)"/>
<path d="M0 0 C2.64 0 5.28 0 8 0 C8 0.99 8 1.98 8 3 C5.36 3 2.72 3 0 3 C0 2.01 0 1.02 0 0 Z " fill="#BBD2A1" transform="translate(99,74)"/>
<path d="M0 0 C1.65 0 3.3 0 5 0 C4.67 2.64 4.34 5.28 4 8 C3.34 8 2.68 8 2 8 C2 6.02 2 4.04 2 2 C1.34 2 0.68 2 0 2 C0 1.34 0 0.68 0 0 Z " fill="#639A25" transform="translate(129,124)"/>
<path d="M0 0 C0.66 0.33 1.32 0.66 2 1 C1.34 4.96 0.68 8.92 0 13 C-2 10 -2 10 -1.7578125 7.51953125 C-1.54898438 6.62621094 -1.34015625 5.73289062 -1.125 4.8125 C-0.92132813 3.91144531 -0.71765625 3.01039062 -0.5078125 2.08203125 C-0.34023437 1.39496094 -0.17265625 0.70789063 0 0 Z " fill="#B8D284" transform="translate(116,67)"/>
<path d="M0 0 C2.4375 0.8125 2.4375 0.8125 5 2 C5.33 2.99 5.66 3.98 6 5 C4.02 5 2.04 5 0 5 C0 3.35 0 1.7 0 0 Z " fill="#8FB663" transform="translate(59,128)"/>
<path d="M0 0 C0.33 0 0.66 0 1 0 C1 2.64 1 5.28 1 8 C0.34 8 -0.32 8 -1 8 C-1 7.01 -1 6.02 -1 5 C-1.66 5 -2.32 5 -3 5 C-3 4.01 -3 3.02 -3 2 C-2.01 2 -1.02 2 0 2 C0 1.34 0 0.68 0 0 Z " fill="#599317" transform="translate(29,124)"/>
<path d="M0 0 C0 0.99 0 1.98 0 3 C1.32 3.33 2.64 3.66 4 4 C-4 4 -4 4 -7 3 C-3.375 0 -3.375 0 0 0 Z " fill="#76A53F" transform="translate(87,54)"/>
<path d="M0 0 C0.66 0.99 1.32 1.98 2 3 C0.68 3.99 -0.64 4.98 -2 6 C-2.99 5.34 -3.98 4.68 -5 4 C-5 3.34 -5 2.68 -5 2 C-3.35 2 -1.7 2 0 2 C0 1.34 0 0.68 0 0 Z " fill="#DFE9D3" transform="translate(92,58)"/>
<path d="M0 0 C1.32 0 2.64 0 4 0 C3.67 1.65 3.34 3.3 3 5 C2.34 5 1.68 5 1 5 C0.67 5.66 0.34 6.32 0 7 C0 4.69 0 2.38 0 0 Z " fill="#5D961C" transform="translate(175,124)"/>
</svg>
